<mxfile host="Electron" agent="Mozilla/5.0 (Windows NT 10.0; Win64; x64) AppleWebKit/537.36 (KHTML, like Gecko) draw.io/27.0.9 Chrome/134.0.6998.205 Electron/35.4.0 Safari/537.36" version="27.0.9">
  <diagram name="Page-1" id="eKYoqj0k9am5mQRyx_B0">
    <mxGraphModel dx="752" dy="504" grid="1" gridSize="10" guides="1" tooltips="1" connect="1" arrows="1" fold="1" page="1" pageScale="1" pageWidth="850" pageHeight="1100" math="0" shadow="0">
      <root>
        <mxCell id="0" />
        <mxCell id="1" parent="0" />
        <mxCell id="RvlEX0yFSZB9a8CZvoDL-28" value="" style="rounded=0;whiteSpace=wrap;html=1;fillColor=#FFB570;fontColor=#000000;" parent="1" vertex="1">
          <mxGeometry x="270" y="50" width="160" height="50" as="geometry" />
        </mxCell>
        <mxCell id="RvlEX0yFSZB9a8CZvoDL-1" value="" style="rounded=0;whiteSpace=wrap;html=1;fillColor=none;dashed=1;dashPattern=1 2;" parent="1" vertex="1">
          <mxGeometry x="60" y="110" width="120" height="330" as="geometry" />
        </mxCell>
        <mxCell id="RvlEX0yFSZB9a8CZvoDL-2" value="Source" style="text;strokeColor=none;align=center;fillColor=none;html=1;verticalAlign=middle;whiteSpace=wrap;rounded=0;fontSize=27;" parent="1" vertex="1">
          <mxGeometry x="90" y="80" width="60" height="30" as="geometry" />
        </mxCell>
        <mxCell id="RvlEX0yFSZB9a8CZvoDL-3" value="" style="image;aspect=fixed;html=1;points=[];align=center;fontSize=12;image=img/lib/azure2/general/Folder_Blank.svg;" parent="1" vertex="1">
          <mxGeometry x="101.52000000000001" y="190" width="36.96" height="30" as="geometry" />
        </mxCell>
        <mxCell id="RvlEX0yFSZB9a8CZvoDL-4" value="" style="image;aspect=fixed;html=1;points=[];align=center;fontSize=12;image=img/lib/azure2/general/Folder_Blank.svg;" parent="1" vertex="1">
          <mxGeometry x="101.52" y="350" width="36.96" height="30" as="geometry" />
        </mxCell>
        <mxCell id="RvlEX0yFSZB9a8CZvoDL-5" value="&lt;font style=&quot;font-size: 12px;&quot;&gt;CRM&lt;/font&gt;" style="text;strokeColor=none;align=center;fillColor=none;html=1;verticalAlign=middle;whiteSpace=wrap;rounded=0;fontSize=27;" parent="1" vertex="1">
          <mxGeometry x="90" y="210" width="60" height="30" as="geometry" />
        </mxCell>
        <mxCell id="RvlEX0yFSZB9a8CZvoDL-6" value="&lt;font style=&quot;font-size: 12px;&quot;&gt;ERP&lt;/font&gt;" style="text;strokeColor=none;align=center;fillColor=none;html=1;verticalAlign=middle;whiteSpace=wrap;rounded=0;fontSize=27;" parent="1" vertex="1">
          <mxGeometry x="90" y="370" width="60" height="30" as="geometry" />
        </mxCell>
        <mxCell id="RvlEX0yFSZB9a8CZvoDL-7" value="" style="rounded=0;whiteSpace=wrap;html=1;fillColor=none;dashed=1;dashPattern=1 2;strokeColor=#FFB570;" parent="1" vertex="1">
          <mxGeometry x="260" y="110" width="180" height="330" as="geometry" />
        </mxCell>
        <mxCell id="RvlEX0yFSZB9a8CZvoDL-8" value="BRONZE" style="text;strokeColor=none;align=center;fillColor=none;html=1;verticalAlign=middle;whiteSpace=wrap;rounded=0;fontSize=27;" parent="1" vertex="1">
          <mxGeometry x="315" y="70" width="60" height="30" as="geometry" />
        </mxCell>
        <mxCell id="QkTqiclFqHH7slQBxOu6-12" style="edgeStyle=orthogonalEdgeStyle;rounded=0;orthogonalLoop=1;jettySize=auto;html=1;" parent="1" source="RvlEX0yFSZB9a8CZvoDL-10" target="QkTqiclFqHH7slQBxOu6-6" edge="1">
          <mxGeometry relative="1" as="geometry" />
        </mxCell>
        <mxCell id="RvlEX0yFSZB9a8CZvoDL-10" value="crm_sales_details" style="rounded=0;whiteSpace=wrap;html=1;strokeColor=#FFB570;" parent="1" vertex="1">
          <mxGeometry x="270" y="140" width="150" height="30" as="geometry" />
        </mxCell>
        <mxCell id="QkTqiclFqHH7slQBxOu6-18" style="edgeStyle=orthogonalEdgeStyle;rounded=0;orthogonalLoop=1;jettySize=auto;html=1;entryX=0;entryY=0.5;entryDx=0;entryDy=0;" parent="1" source="RvlEX0yFSZB9a8CZvoDL-11" target="QkTqiclFqHH7slQBxOu6-7" edge="1">
          <mxGeometry relative="1" as="geometry" />
        </mxCell>
        <mxCell id="RvlEX0yFSZB9a8CZvoDL-11" value="crm_prd_info" style="rounded=0;whiteSpace=wrap;html=1;strokeColor=#FFB570;" parent="1" vertex="1">
          <mxGeometry x="270" y="240" width="150" height="30" as="geometry" />
        </mxCell>
        <mxCell id="QkTqiclFqHH7slQBxOu6-13" style="edgeStyle=orthogonalEdgeStyle;rounded=0;orthogonalLoop=1;jettySize=auto;html=1;" parent="1" source="RvlEX0yFSZB9a8CZvoDL-12" target="QkTqiclFqHH7slQBxOu6-8" edge="1">
          <mxGeometry relative="1" as="geometry" />
        </mxCell>
        <mxCell id="RvlEX0yFSZB9a8CZvoDL-12" value="crm_cust_info" style="rounded=0;whiteSpace=wrap;html=1;strokeColor=#FFB570;" parent="1" vertex="1">
          <mxGeometry x="270" y="190" width="150" height="30" as="geometry" />
        </mxCell>
        <mxCell id="QkTqiclFqHH7slQBxOu6-17" style="edgeStyle=orthogonalEdgeStyle;rounded=0;orthogonalLoop=1;jettySize=auto;html=1;entryX=0;entryY=0.5;entryDx=0;entryDy=0;" parent="1" source="RvlEX0yFSZB9a8CZvoDL-13" target="QkTqiclFqHH7slQBxOu6-9" edge="1">
          <mxGeometry relative="1" as="geometry" />
        </mxCell>
        <mxCell id="RvlEX0yFSZB9a8CZvoDL-13" value="erp_px_cat_G1V2" style="rounded=0;whiteSpace=wrap;html=1;strokeColor=#FFB570;" parent="1" vertex="1">
          <mxGeometry x="270" y="400" width="150" height="30" as="geometry" />
        </mxCell>
        <mxCell id="QkTqiclFqHH7slQBxOu6-16" style="edgeStyle=orthogonalEdgeStyle;rounded=0;orthogonalLoop=1;jettySize=auto;html=1;entryX=0;entryY=0.5;entryDx=0;entryDy=0;" parent="1" source="RvlEX0yFSZB9a8CZvoDL-14" target="QkTqiclFqHH7slQBxOu6-10" edge="1">
          <mxGeometry relative="1" as="geometry" />
        </mxCell>
        <mxCell id="RvlEX0yFSZB9a8CZvoDL-14" value="erp_loc_A101" style="rounded=0;whiteSpace=wrap;html=1;strokeColor=#FFB570;" parent="1" vertex="1">
          <mxGeometry x="270" y="350" width="150" height="30" as="geometry" />
        </mxCell>
        <mxCell id="QkTqiclFqHH7slQBxOu6-15" style="edgeStyle=orthogonalEdgeStyle;rounded=0;orthogonalLoop=1;jettySize=auto;html=1;" parent="1" source="RvlEX0yFSZB9a8CZvoDL-15" target="QkTqiclFqHH7slQBxOu6-11" edge="1">
          <mxGeometry relative="1" as="geometry" />
        </mxCell>
        <mxCell id="RvlEX0yFSZB9a8CZvoDL-15" value="erp_cust_AZ12" style="rounded=0;whiteSpace=wrap;html=1;strokeColor=#FFB570;" parent="1" vertex="1">
          <mxGeometry x="270" y="300" width="150" height="30" as="geometry" />
        </mxCell>
        <mxCell id="RvlEX0yFSZB9a8CZvoDL-21" value="" style="group" parent="1" vertex="1" connectable="0">
          <mxGeometry x="140" y="159" width="120" height="101" as="geometry" />
        </mxCell>
        <mxCell id="RvlEX0yFSZB9a8CZvoDL-16" value="" style="endArrow=classic;html=1;rounded=0;entryX=-0.019;entryY=0.148;entryDx=0;entryDy=0;entryPerimeter=0;" parent="RvlEX0yFSZB9a8CZvoDL-21" target="RvlEX0yFSZB9a8CZvoDL-7" edge="1">
          <mxGeometry width="50" height="50" relative="1" as="geometry">
            <mxPoint x="50" as="sourcePoint" />
            <mxPoint x="90" y="-9" as="targetPoint" />
          </mxGeometry>
        </mxCell>
        <mxCell id="RvlEX0yFSZB9a8CZvoDL-17" value="" style="endArrow=classic;html=1;rounded=0;entryX=-0.019;entryY=0.148;entryDx=0;entryDy=0;entryPerimeter=0;" parent="RvlEX0yFSZB9a8CZvoDL-21" edge="1">
          <mxGeometry width="50" height="50" relative="1" as="geometry">
            <mxPoint x="50" y="46" as="sourcePoint" />
            <mxPoint x="120" y="45.5" as="targetPoint" />
          </mxGeometry>
        </mxCell>
        <mxCell id="RvlEX0yFSZB9a8CZvoDL-18" value="" style="endArrow=classic;html=1;rounded=0;entryX=-0.019;entryY=0.148;entryDx=0;entryDy=0;entryPerimeter=0;" parent="RvlEX0yFSZB9a8CZvoDL-21" edge="1">
          <mxGeometry width="50" height="50" relative="1" as="geometry">
            <mxPoint x="50" y="96" as="sourcePoint" />
            <mxPoint x="120" y="95.5" as="targetPoint" />
          </mxGeometry>
        </mxCell>
        <mxCell id="RvlEX0yFSZB9a8CZvoDL-19" value="" style="endArrow=none;html=1;rounded=0;" parent="RvlEX0yFSZB9a8CZvoDL-21" edge="1">
          <mxGeometry width="50" height="50" relative="1" as="geometry">
            <mxPoint x="50" y="101" as="sourcePoint" />
            <mxPoint x="50" y="1" as="targetPoint" />
          </mxGeometry>
        </mxCell>
        <mxCell id="RvlEX0yFSZB9a8CZvoDL-20" value="" style="endArrow=none;html=1;rounded=0;" parent="RvlEX0yFSZB9a8CZvoDL-21" edge="1">
          <mxGeometry width="50" height="50" relative="1" as="geometry">
            <mxPoint y="51" as="sourcePoint" />
            <mxPoint x="50" y="51" as="targetPoint" />
          </mxGeometry>
        </mxCell>
        <mxCell id="RvlEX0yFSZB9a8CZvoDL-22" value="" style="group" parent="1" vertex="1" connectable="0">
          <mxGeometry x="150" y="314.5" width="120" height="101" as="geometry" />
        </mxCell>
        <mxCell id="RvlEX0yFSZB9a8CZvoDL-23" value="" style="endArrow=classic;html=1;rounded=0;entryX=0.002;entryY=0.616;entryDx=0;entryDy=0;entryPerimeter=0;" parent="RvlEX0yFSZB9a8CZvoDL-22" target="RvlEX0yFSZB9a8CZvoDL-7" edge="1">
          <mxGeometry width="50" height="50" relative="1" as="geometry">
            <mxPoint x="50" as="sourcePoint" />
            <mxPoint x="90" y="-9" as="targetPoint" />
          </mxGeometry>
        </mxCell>
        <mxCell id="RvlEX0yFSZB9a8CZvoDL-24" value="" style="endArrow=classic;html=1;rounded=0;entryX=-0.019;entryY=0.148;entryDx=0;entryDy=0;entryPerimeter=0;" parent="RvlEX0yFSZB9a8CZvoDL-22" edge="1">
          <mxGeometry width="50" height="50" relative="1" as="geometry">
            <mxPoint x="50" y="46" as="sourcePoint" />
            <mxPoint x="120" y="45.5" as="targetPoint" />
          </mxGeometry>
        </mxCell>
        <mxCell id="RvlEX0yFSZB9a8CZvoDL-25" value="" style="endArrow=classic;html=1;rounded=0;entryX=-0.019;entryY=0.148;entryDx=0;entryDy=0;entryPerimeter=0;" parent="RvlEX0yFSZB9a8CZvoDL-22" edge="1">
          <mxGeometry width="50" height="50" relative="1" as="geometry">
            <mxPoint x="50" y="96" as="sourcePoint" />
            <mxPoint x="120" y="95.5" as="targetPoint" />
          </mxGeometry>
        </mxCell>
        <mxCell id="RvlEX0yFSZB9a8CZvoDL-26" value="" style="endArrow=none;html=1;rounded=0;" parent="RvlEX0yFSZB9a8CZvoDL-22" edge="1">
          <mxGeometry width="50" height="50" relative="1" as="geometry">
            <mxPoint x="50" y="101" as="sourcePoint" />
            <mxPoint x="50" y="1" as="targetPoint" />
          </mxGeometry>
        </mxCell>
        <mxCell id="RvlEX0yFSZB9a8CZvoDL-27" value="" style="endArrow=none;html=1;rounded=0;" parent="RvlEX0yFSZB9a8CZvoDL-22" edge="1">
          <mxGeometry width="50" height="50" relative="1" as="geometry">
            <mxPoint y="51" as="sourcePoint" />
            <mxPoint x="50" y="51" as="targetPoint" />
          </mxGeometry>
        </mxCell>
        <mxCell id="QkTqiclFqHH7slQBxOu6-3" value="" style="rounded=0;whiteSpace=wrap;html=1;fillColor=#B3B3B3;fontColor=#000000;strokeColor=#999999;" parent="1" vertex="1">
          <mxGeometry x="525" y="50" width="160" height="50" as="geometry" />
        </mxCell>
        <mxCell id="QkTqiclFqHH7slQBxOu6-4" value="" style="rounded=0;whiteSpace=wrap;html=1;fillColor=none;dashed=1;dashPattern=1 2;strokeColor=#999999;" parent="1" vertex="1">
          <mxGeometry x="520" y="110" width="180" height="330" as="geometry" />
        </mxCell>
        <mxCell id="QkTqiclFqHH7slQBxOu6-5" value="SILVER" style="text;strokeColor=none;align=center;fillColor=none;html=1;verticalAlign=middle;whiteSpace=wrap;rounded=0;fontSize=27;" parent="1" vertex="1">
          <mxGeometry x="575" y="70" width="60" height="30" as="geometry" />
        </mxCell>
        <mxCell id="QkTqiclFqHH7slQBxOu6-6" value="crm_sales_details" style="rounded=0;whiteSpace=wrap;html=1;strokeColor=#999999;fillColor=none;" parent="1" vertex="1">
          <mxGeometry x="530" y="140" width="150" height="30" as="geometry" />
        </mxCell>
        <mxCell id="QkTqiclFqHH7slQBxOu6-7" value="crm_prd_info" style="rounded=0;whiteSpace=wrap;html=1;strokeColor=#999999;fillColor=none;" parent="1" vertex="1">
          <mxGeometry x="530" y="240" width="150" height="30" as="geometry" />
        </mxCell>
        <mxCell id="QkTqiclFqHH7slQBxOu6-8" value="crm_cust_info" style="rounded=0;whiteSpace=wrap;html=1;strokeColor=#999999;fillColor=none;" parent="1" vertex="1">
          <mxGeometry x="530" y="190" width="150" height="30" as="geometry" />
        </mxCell>
        <mxCell id="QkTqiclFqHH7slQBxOu6-9" value="erp_px_cat_G1V2" style="rounded=0;whiteSpace=wrap;html=1;strokeColor=#999999;fillColor=none;" parent="1" vertex="1">
          <mxGeometry x="530" y="400" width="150" height="30" as="geometry" />
        </mxCell>
        <mxCell id="QkTqiclFqHH7slQBxOu6-10" value="erp_loc_A101" style="rounded=0;whiteSpace=wrap;html=1;strokeColor=#999999;fillColor=none;" parent="1" vertex="1">
          <mxGeometry x="530" y="350" width="150" height="30" as="geometry" />
        </mxCell>
        <mxCell id="QkTqiclFqHH7slQBxOu6-11" value="erp_cust_AZ12" style="rounded=0;whiteSpace=wrap;html=1;strokeColor=#999999;fillColor=none;" parent="1" vertex="1">
          <mxGeometry x="530" y="300" width="150" height="30" as="geometry" />
        </mxCell>
        <mxCell id="TKDIH9_ATZEi68wGcveb-2" value="" style="rounded=0;whiteSpace=wrap;html=1;fillColor=#e3c800;strokeColor=#B09500;fontColor=#000000;" vertex="1" parent="1">
          <mxGeometry x="785" y="50" width="160" height="50" as="geometry" />
        </mxCell>
        <mxCell id="TKDIH9_ATZEi68wGcveb-3" value="" style="rounded=0;whiteSpace=wrap;html=1;fillColor=none;dashed=1;dashPattern=1 2;strokeColor=#B09500;fontColor=#000000;" vertex="1" parent="1">
          <mxGeometry x="780" y="110" width="180" height="330" as="geometry" />
        </mxCell>
        <mxCell id="TKDIH9_ATZEi68wGcveb-4" value="GOLD" style="text;strokeColor=#B09500;align=center;fillColor=#e3c800;html=1;verticalAlign=middle;whiteSpace=wrap;rounded=0;fontSize=27;fontColor=#000000;" vertex="1" parent="1">
          <mxGeometry x="835" y="70" width="65" height="27" as="geometry" />
        </mxCell>
        <mxCell id="TKDIH9_ATZEi68wGcveb-5" value="fact_sales" style="rounded=0;whiteSpace=wrap;html=1;strokeColor=#B09500;fillColor=none;fontColor=#FFFFFF;" vertex="1" parent="1">
          <mxGeometry x="790" y="220" width="150" height="30" as="geometry" />
        </mxCell>
        <mxCell id="TKDIH9_ATZEi68wGcveb-6" value="dim_products" style="rounded=0;whiteSpace=wrap;html=1;strokeColor=#B09500;fillColor=none;fontColor=#FFFFFF;" vertex="1" parent="1">
          <mxGeometry x="790" y="350" width="150" height="30" as="geometry" />
        </mxCell>
        <mxCell id="TKDIH9_ATZEi68wGcveb-7" value="dim_customers" style="rounded=0;whiteSpace=wrap;html=1;strokeColor=#B09500;fillColor=none;fontColor=#FFFFFF;" vertex="1" parent="1">
          <mxGeometry x="790" y="284.5" width="150" height="30" as="geometry" />
        </mxCell>
        <mxCell id="TKDIH9_ATZEi68wGcveb-18" value="" style="endArrow=classic;html=1;rounded=0;entryX=0.026;entryY=0.569;entryDx=0;entryDy=0;entryPerimeter=0;" edge="1" parent="1" target="TKDIH9_ATZEi68wGcveb-3">
          <mxGeometry width="50" height="50" relative="1" as="geometry">
            <mxPoint x="680" y="210" as="sourcePoint" />
            <mxPoint x="730" y="160" as="targetPoint" />
          </mxGeometry>
        </mxCell>
        <mxCell id="TKDIH9_ATZEi68wGcveb-19" value="" style="endArrow=none;html=1;rounded=0;entryX=0.004;entryY=0.569;entryDx=0;entryDy=0;entryPerimeter=0;" edge="1" parent="1" target="TKDIH9_ATZEi68wGcveb-3">
          <mxGeometry width="50" height="50" relative="1" as="geometry">
            <mxPoint x="679" y="314.5" as="sourcePoint" />
            <mxPoint x="780" y="387.5" as="targetPoint" />
          </mxGeometry>
        </mxCell>
        <mxCell id="TKDIH9_ATZEi68wGcveb-22" value="" style="endArrow=classic;html=1;rounded=0;" edge="1" parent="1">
          <mxGeometry width="50" height="50" relative="1" as="geometry">
            <mxPoint x="680" y="370" as="sourcePoint" />
            <mxPoint x="779" y="300" as="targetPoint" />
          </mxGeometry>
        </mxCell>
        <mxCell id="TKDIH9_ATZEi68wGcveb-23" value="" style="endArrow=classic;html=1;rounded=0;entryX=-0.007;entryY=0.779;entryDx=0;entryDy=0;entryPerimeter=0;" edge="1" parent="1" target="TKDIH9_ATZEi68wGcveb-3">
          <mxGeometry width="50" height="50" relative="1" as="geometry">
            <mxPoint x="675" y="250" as="sourcePoint" />
            <mxPoint x="780" y="338" as="targetPoint" />
          </mxGeometry>
        </mxCell>
        <mxCell id="TKDIH9_ATZEi68wGcveb-24" value="" style="endArrow=classic;html=1;rounded=0;" edge="1" parent="1">
          <mxGeometry width="50" height="50" relative="1" as="geometry">
            <mxPoint x="680" y="415.5" as="sourcePoint" />
            <mxPoint x="780" y="370" as="targetPoint" />
          </mxGeometry>
        </mxCell>
        <mxCell id="TKDIH9_ATZEi68wGcveb-25" value="" style="endArrow=classic;html=1;rounded=0;entryX=-0.007;entryY=0.368;entryDx=0;entryDy=0;entryPerimeter=0;" edge="1" parent="1" target="TKDIH9_ATZEi68wGcveb-3">
          <mxGeometry width="50" height="50" relative="1" as="geometry">
            <mxPoint x="675" y="159" as="sourcePoint" />
            <mxPoint x="780" y="247" as="targetPoint" />
          </mxGeometry>
        </mxCell>
      </root>
    </mxGraphModel>
  </diagram>
</mxfile>
